<?xml version="1.0" standalone="no"?>
<!DOCTYPE svg PUBLIC "-//W3C//DTD SVG 20010904//EN"
 "http://www.w3.org/TR/2001/REC-SVG-20010904/DTD/svg10.dtd">
<svg version="1.0" xmlns="http://www.w3.org/2000/svg"
 width="809.000000pt" height="310.000000pt" viewBox="0 0 809.000000 310.000000"
 preserveAspectRatio="xMidYMid meet">

<g transform="translate(0.000000,310.000000) scale(0.100000,-0.100000)"
fill="#000000" stroke="none">
<path d="M3434 1974 c-111 -144 -285 -387 -437 -610 l-116 -171 -193 -6 c-186
-5 -284 -19 -310 -45 -17 -17 0 -60 42 -102 36 -36 80 -53 80 -31 0 13 136 77
200 94 74 20 130 29 130 21 0 -12 -222 -329 -298 -424 -98 -124 -236 -266
-287 -295 -22 -13 -68 -29 -102 -36 -53 -11 -67 -10 -103 4 -68 27 -89 3 -51
-60 26 -42 97 -82 159 -90 43 -5 60 -1 117 26 111 51 213 168 376 431 36 58
115 183 174 279 l108 173 81 -6 c81 -7 153 -20 163 -29 2 -3 -7 -52 -21 -109
-40 -163 -49 -232 -44 -353 4 -107 7 -118 41 -189 24 -48 53 -89 83 -115 44
-38 128 -76 145 -65 33 20 -22 109 -81 134 -43 18 -65 95 -57 205 14 200 81
426 254 854 192 478 202 530 114 604 -55 46 -67 39 -167 -89z m-62 -351 c-50
-120 -110 -273 -134 -341 l-43 -124 -50 7 c-27 4 -76 10 -107 14 -32 4 -60 10
-64 14 -4 3 50 86 119 184 132 186 357 476 364 469 3 -2 -36 -102 -85 -223z"/>
<path d="M5519 1781 c-50 -52 -158 -227 -230 -373 -24 -49 -47 -88 -51 -88 -3
0 -10 9 -13 20 -9 27 -65 69 -109 81 -64 18 -112 -4 -191 -85 -81 -83 -144
-186 -210 -343 -46 -110 -115 -226 -146 -246 -79 -49 -62 149 36 417 41 116
38 128 -40 165 -58 27 -76 24 -88 -14 -5 -16 -11 -31 -12 -33 -2 -2 -24 11
-51 27 -54 35 -125 42 -173 16 -40 -20 -110 -101 -145 -166 -72 -133 -388
-459 -445 -459 -10 0 -25 8 -34 18 -49 54 9 234 125 389 l38 53 48 -50 c55
-57 82 -64 82 -22 0 15 7 36 15 46 20 26 19 80 -1 122 -24 50 -88 104 -124
104 -101 0 -223 -134 -306 -335 -25 -61 -29 -83 -29 -166 0 -93 1 -98 34 -146
43 -63 89 -93 143 -93 70 0 124 35 246 156 l112 113 0 -60 c0 -72 14 -102 74
-157 51 -47 89 -66 117 -57 20 7 68 69 120 158 18 31 37 57 40 57 4 0 9 -27
11 -59 5 -66 37 -120 88 -146 63 -33 113 -14 188 71 l50 57 15 -30 c9 -16 34
-46 56 -66 35 -32 48 -37 88 -37 61 0 116 33 185 110 l53 60 0 -133 c0 -128 1
-134 32 -199 32 -69 95 -128 135 -128 28 0 23 47 -9 89 -27 34 -28 41 -28 146
0 78 7 140 23 213 69 308 256 707 409 872 53 58 55 61 43 90 -16 39 -74 90
-102 90 -13 0 -41 -20 -69 -49z m-311 -510 c11 -7 7 -28 -22 -107 -50 -136
-60 -157 -123 -253 -90 -138 -198 -240 -237 -225 -54 21 33 276 146 429 99
134 183 190 236 156z m-768 -60 c0 -19 -60 -155 -92 -209 -35 -59 -177 -212
-197 -212 -17 0 -14 21 15 102 57 159 140 280 217 313 37 17 57 19 57 6z"/>
<path d="M7130 1395 c0 -4 7 -20 16 -36 19 -37 14 -72 -27 -211 -23 -77 -46
-126 -111 -229 -82 -134 -132 -199 -150 -199 -24 0 -5 83 86 375 43 136 43
176 1 230 -31 42 -73 65 -116 65 -47 0 -89 -50 -189 -223 -47 -81 -86 -141
-88 -133 -2 8 2 41 7 72 6 32 11 76 11 99 0 106 -139 198 -200 133 -12 -13
-69 -98 -128 -190 -59 -92 -108 -165 -110 -164 -9 10 34 123 64 168 32 46 34
54 23 80 -16 38 -74 88 -104 88 -30 0 -69 -64 -117 -193 -31 -82 -39 -94 -113
-165 -120 -116 -213 -190 -282 -224 -61 -30 -63 -30 -89 -13 -24 16 -26 21
-21 65 7 55 64 200 79 200 5 0 22 -9 38 -20 44 -31 82 -42 126 -35 129 19 259
207 210 302 -20 40 -80 92 -134 115 -166 74 -403 -177 -452 -476 -17 -107 22
-201 101 -242 42 -21 132 -18 182 7 58 30 163 109 217 163 24 25 48 46 52 46
4 0 8 -25 8 -56 0 -68 21 -115 69 -154 65 -55 76 -48 176 113 97 157 225 340
232 334 2 -3 -3 -31 -11 -63 -8 -33 -22 -96 -31 -141 -15 -76 -15 -84 0 -114
25 -47 75 -89 106 -89 38 0 74 45 187 232 96 157 140 221 127 183 -17 -50 -45
-177 -56 -253 -10 -72 -9 -88 5 -127 22 -57 76 -105 119 -105 41 0 77 25 123
83 34 44 54 58 54 38 0 -15 82 -101 111 -116 37 -20 62 -19 108 4 55 28 189
175 288 315 47 66 89 125 94 130 21 23 -55 -254 -111 -403 -75 -198 -181 -345
-281 -391 -58 -26 -86 -25 -125 5 -38 29 -54 32 -54 10 0 -25 26 -68 62 -101
106 -100 234 -83 352 48 141 155 278 541 316 885 14 135 5 172 -62 236 -27 27
-56 47 -65 45 -9 -2 -21 -22 -28 -45 -34 -113 -217 -395 -356 -547 -107 -117
-123 -101 -69 69 89 281 101 364 61 429 -33 53 -131 121 -131 91z m-1310 -150
c0 -13 -35 -73 -63 -109 -37 -47 -111 -96 -145 -96 l-24 0 27 38 c47 62 98
113 144 143 44 28 61 35 61 24z"/>
</g>
</svg>
