<?xml version="1.0" encoding="UTF-8" standalone="no"?>
<!DOCTYPE svg PUBLIC "-//W3C//DTD SVG 1.1//EN" "http://www.w3.org/Graphics/SVG/1.1/DTD/svg11.dtd">
<svg xmlns="http://www.w3.org/2000/svg" xmlns:xlink="http://www.w3.org/1999/xlink" version="1.1" width="800pt" height="800pt" viewBox="0 0 800 800">
<g enable-background="new">
<g id="Layer-1" data-name="Layer 1">
<path transform="matrix(1,0,0,-1,0,800)" d="M 0 0 L 800 0 L 800 800 L 0 800 Z " fill="#f48120"/>
<clipPath id="cp0">
<path transform="matrix(1,0,0,-1,0,800)" d="M 0 800 L 800 800 L 800 0 L 0 0 Z "/>
</clipPath>
<g clip-path="url(#cp0)">
<path transform="matrix(1,0,0,-1,561.2549,638.2832)" d="M 0 0 C -14.339 0 -21.088 12.863 -21.088 25.123 C -21.088 37.257 -14.339 50.089 0 50.089 C 14.413 50.089 21.032 37.257 21.032 25.123 C 21.032 12.863 14.413 0 0 0 M 0 62.361 C -22.488 62.361 -35.221 45.383 -35.221 25.123 C -35.221 4.688 -22.488 -12.253 0 -12.253 C 22.495 -12.253 35.233 4.688 35.233 25.123 C 35.233 45.438 22.495 62.361 0 62.361 " fill="#ffffff"/>
<path transform="matrix(1,0,0,-1,486.2256,635.5713)" d="M 0 0 C -13.617 0 -19.65 11.456 -19.65 23.149 C -19.65 34.96 -14.202 47.375 0 47.375 C 13.834 47.375 19.033 34.48 19.033 23.149 C 19.033 12.042 13.124 0 0 0 M 19.033 52.175 C 14.052 56.9 7.11 59.646 0 59.646 C -21.456 59.646 -33.771 43.384 -33.771 24.008 C -33.771 3.487 -23.199 -12.303 0 -12.303 C 7.434 -12.303 14.114 -9.476 19.033 -4.626 L 19.033 -4.937 C 19.033 -17.937 14.799 -26.821 0 -26.821 C -7.933 -26.821 -15.534 -24.275 -17.122 -16.094 L -17.577 -13.778 L -31.535 -13.778 L -31.256 -16.822 C -29.854 -32.574 -14.875 -39.155 0 -39.155 C 23.609 -39.155 33.11 -26.393 33.166 -4.937 L 33.166 57.754 L 19.033 57.754 Z " fill="#ffffff"/>
<path transform="matrix(1,0,0,-1,418.0664,575.9238)" d="M 0 0 C -6.974 0 -14.14 -2.56 -19.22 -7.129 L -19.22 -1.893 L -33.36 -1.893 L -33.36 -72.728 L -19.22 -72.728 L -19.22 -31.878 C -18.959 -21.125 -12.776 -12.271 -.647 -12.271 C 10.889 -12.271 13.722 -19.208 13.722 -29.244 L 13.722 -72.728 L 27.998 -72.728 L 27.998 -27.931 C 27.998 -9.645 19.773 0 0 0 " fill="#ffffff"/>
<path transform="matrix(1,0,0,-1,359.7998,620.5469)" d="M 0 0 C .149 -11.281 -9.925 -17.738 -20.908 -17.738 C -27.103 -17.738 -33.248 -14.015 -33.248 -7.627 C -33.248 -5.877 -32.831 -4.152 -31.697 -2.845 C -27.98 1.719 -16.742 2.914 -11.102 3.667 C -8.717 3.96 -6.214 4.303 -3.904 4.726 C -2.627 4.9 -1.301 5.199 0 5.511 Z M -13.909 44.623 C -30.757 44.623 -43.583 37.257 -44.504 20.092 L -44.61 17.196 L -30.359 17.196 L -30.359 19.893 C -30.085 28.896 -23.747 32.352 -14.974 32.352 C -6.824 32.352 0 30.77 0 21.792 C 0 16.163 -3.007 16.182 -8.138 15.628 C -24.668 13.841 -47.362 13.249 -47.362 -8.081 C -47.362 -22.719 -35.931 -29.984 -21.542 -29.984 C -11.581 -29.984 -5 -27.444 .635 -21.848 L .548 -28.173 L 14.22 -28.104 L 14.17 20.883 C 14.17 38.023 2.465 44.623 -13.909 44.623 " fill="#ffffff"/>
<path transform="matrix(1,0,0,-1,219.3774,583.5303)" d="M 0 0 C 5.012 5.049 11.78 7.608 19.824 7.608 C 28.062 7.608 35.669 4.37 39.866 -1.887 C 44.841 4.32 52.704 7.608 61.134 7.608 C 78.443 7.608 86.68 -1.787 86.68 -18.081 L 86.73 -65.119 L 72.491 -65.119 L 72.491 -18.454 C 72.491 -9.134 69.421 -4.664 59.316 -4.664 C 46.509 -4.664 43.664 -15.093 43.664 -25.365 L 43.664 -65.119 L 29.549 -65.119 L 29.549 -18.081 C 29.549 -10.504 26.847 -4.664 18.093 -4.664 C 4.763 -4.664 .723 -14.794 .667 -25.889 L .667 -65.119 L -13.492 -65.119 L -13.492 5.715 L 0 5.715 Z " fill="#ffffff" fill-rule="evenodd"/>
<path transform="matrix(1,0,0,-1,0,800)" d="M 328.627 302.942 L 336.273 302.942 L 336.273 292.47599 L 328.627 292.47599 Z " fill="#231f20" fill-rule="evenodd"/>
<path transform="matrix(1,0,0,-1,364.8765,553.4395)" d="M 0 0 C -10.018 0 -14.818 8.804 -14.818 17.364 C -14.818 25.925 -10.018 34.76 0 34.76 C 10.067 34.76 14.75 25.925 14.75 17.364 C 14.75 8.804 10.067 0 0 0 M 0 41.229 C -14.457 41.229 -22.402 30.34 -22.402 17.364 C -22.402 4.358 -14.457 -6.457 0 -6.457 C 14.419 -6.457 22.376 4.358 22.376 17.364 C 22.376 30.34 14.419 41.229 0 41.229 " fill="#231f20"/>
<path transform="matrix(1,0,0,-1,0,800)" d="M 328.627 240.103 L 336.273 240.103 L 336.273 288.15 L 328.627 288.15 Z " fill="#231f20"/>
<path transform="matrix(1,0,0,-1,297.7026,553.4395)" d="M 0 0 C -9.949 0 -13.704 9.134 -13.704 17.364 C -13.704 25.633 -9.949 34.76 0 34.76 C 10.672 34.76 14.8 26.354 14.8 17.364 C 14.8 8.367 10.672 0 0 0 M 14.8 34.549 C 11.543 38.926 5.84 41.229 0 41.229 C -14.382 41.229 -21.337 30.047 -21.337 17.364 C -21.337 4.719 -14.382 -6.457 0 -6.457 C 5.517 -6.457 11.786 -3.817 15.198 .572 L 15.198 -5.971 L 22.389 -5.971 L 22.389 56.508 L 14.8 56.508 Z " fill="#231f20"/>
<path transform="matrix(1,0,0,-1,212.4766,519.75)" d="M 0 0 L 0 7.802 L -7.179 7.802 L -7.179 -40.146 L .436 -40.146 L .436 -13.896 C .436 -5.342 6.955 .959 16.076 .529 L 17.215 .479 L 17.215 7.802 L 16.244 7.802 C 9.258 8.106 3.518 5.236 0 0 " fill="#231f20"/>
<path transform="matrix(1,0,0,-1,261.9209,540.92678)" d="M 0 0 C .13 -7.919 -6.917 -12.515 -14.625 -12.515 C -19.195 -12.515 -23.653 -9.7 -23.653 -4.968 C -23.653 1.931 -13.58 2.49 -8.325 3.257 C -6.693 3.487 -5.087 3.711 -3.549 3.929 C -2.447 4.135 -1.077 4.353 0 4.906 Z M -10.08 28.715 C -20.658 28.715 -28.821 24.151 -29.35 13.318 L -29.4 12.166 L -21.785 12.166 L -21.785 13.237 C -21.592 19.662 -17.029 22.246 -10.765 22.246 C -4.863 22.246 0 20.896 0 14.445 C 0 10.192 -2.31 9.969 -6.083 9.539 C -16.543 8.362 -31.292 8.169 -31.292 -5.354 C -31.292 -14.575 -24.083 -18.971 -15.099 -18.971 C -7.82 -18.971 -3.474 -16.935 .436 -12.072 L .417 -18.41 L 7.77 -18.41 L 7.689 13.847 C 7.689 24.687 .361 28.715 -10.08 28.715 " fill="#231f20"/>
<path transform="matrix(1,0,0,-1,349.6519,194.45313)" d="M 0 0 C -14.507 -2.372 -20.758 -9.539 -13.94 -15.646 C -7.198 -21.748 4.482 -14.42 7.004 -9.912 C 9.557 -5.348 14.457 2.366 0 0 " fill="#ffffff" fill-rule="evenodd"/>
<path transform="matrix(1,0,0,-1,307.2183,228.74512)" d="M 0 0 C -21.468 -10.224 -37.687 -40.514 -42.176 -81.195 C -46.634 -121.883 -40.906 -153.156 -12.185 -185.115 C 16.599 -217.043 37.245 -204.211 24.936 -192.729 C 12.57 -181.192 -10.217 -177.955 -2.684 -151.799 C 4.52 -127.013 -10.553 -86.674 13.66 -58.681 C 39.604 -23.616 21.468 10.198 0 0 " fill="#ffffff" fill-rule="evenodd"/>
<path transform="matrix(1,0,0,-1,354.3398,459.2881)" d="M 0 0 C -10.167 -14.488 9.383 -26.105 18.94 -18.716 C 36.404 -2.963 11.045 15.814 0 0 " fill="#ffffff" fill-rule="evenodd"/>
<path transform="matrix(1,0,0,-1,406.4531,551.53616)" d="M 0 0 C -3.306 19.264 2.104 42.069 -18.958 53.451 C -30.875 59.833 -29.935 68.568 -25.458 72.409 C -15.435 80.982 -3.748 68.244 3.306 61.32 C 16.095 48.744 64.478 16.119 108.938 47.99 C 167.078 89.681 156.194 220.118 120.594 261.216 C 92.364 293.959 67.641 307.682 59.827 326.809 C 52.131 345.935 45.221 364.632 13.996 348.861 C -17.296 333.196 -36.659 343.14 -34.885 355.361 C -33.173 367.515 -13.592 371.02 9.943 373.536 C 141.233 382.557 231.537 254.642 170.932 106.093 C 147.846 49.578 94.307 7.546 36.902 -8.101 C 19.905 -13.94 2.372 -14.027 0 0 " fill="#ffffff" fill-rule="evenodd"/>
<path transform="matrix(1,0,0,-1,333.6001,190.51947)" d="M 0 0 C -6.189 -2.055 -28.702 26.853 -23.703 35.557 C -18.685 44.149 -6.805 36.964 -3.512 26.723 C 0 16.499 -4.134 15.951 -.803 13.504 C 2.584 11.039 6.04 2.011 0 0 " fill="#231f20" fill-rule="evenodd"/>
<path transform="matrix(1,0,0,-1,304.4331,169.79792)" d="M 0 0 C -25.794 10.933 -64.527 21.991 -91.891 -.131 C -119.28 -22.184 -65.542 -32.295 -25.564 -27.918 C 14.463 -23.541 25.895 -10.927 0 0 M 46.366 66.539 C 62.834 83.25 81.183 91.487 88.561 100.328 C 95.839 109.244 106.28 104.051 85.311 65.742 C 64.21 27.42 66.47 2.771 47.462 12.11 C 33.515 18.884 28.472 48.34 46.366 66.539 " fill="#8ac443" fill-rule="evenodd"/>
</g>
</g>
</g>
</svg>
